PathFileType	4	(X/Y/Z)	/Users/niels/Desktop/University/Third Semester/Perception and Action/Exam/Gymnastics Motion Tracking/Code for Gym Tracking/Analyzed Data/Webcam_Backflip/id3_1_trajectory_Sports2D/id3_1_trajectory_Sports2D_px_person00.trc
DataRate	CameraRate	NumFrames	NumMarkers	Units	OrigDataRate	OrigDataStartFrame	OrigNumFrames
29.708737864077673	29.708737864077673	11	22	m	29.708737864077673	51	103
Frame#	Time	Hip			RHip			RKnee			RAnkle			RBigToe			RSmallToe			RHeel			LHip			LKnee			LAnkle			LBigToe			LSmallToe			LHeel			Neck			Head			Nose			RShoulder			RElbow			RWrist			LShoulder			LElbow			LWrist		
		X1	Y1	Z1	X2	Y2	Z2	X3	Y3	Z3	X4	Y4	Z4	X5	Y5	Z5	X6	Y6	Z6	X7	Y7	Z7	X8	Y8	Z8	X9	Y9	Z9	X10	Y10	Z10	X11	Y11	Z11	X12	Y12	Z12	X13	Y13	Z13	X14	Y14	Z14	X15	Y15	Z15	X16	Y16	Z16	X17	Y17	Z17	X18	Y18	Z18	X19	Y19	Z19	X20	Y20	Z20	X21	Y21	Z21	X22	Y22	Z22
51	1.7166666666666666	0.959838261128023	-0.34977178553361044	0.0	0.9396268865845969	-0.3457528575084229	0.0	0.955188934539212	-0.4753804727032751	0.0	0.9716861338203289	-0.6000987066520429	0.0	0.9978877097394926	-0.6540134228216687	0.0	0.9887985969608543	-0.6485870361490557	0.0	0.9667826641556849	-0.6145324074014245	0.0	0.9796774446592319	-0.34962140826541266	0.0	0.982878974711784	-0.4763432998839907	0.0	0.9753320507586678	-0.5962985345981363	0.0	0.9996082037428444	-0.6478329164149215	0.0	0.9984482974137197	-0.636585863861838	0.0	0.9648311600442221	-0.6088452830852188	0.0	0.9900240643548058	-0.18085741017513307	0.0	1.011445174211615	-0.09819250085655382	0.0	1.0159518947419826	-0.1484585659409668	0.0	0.950112729042572	-0.18603960290088162	0.0	0.9897458916156303	-0.2292686782096704	0.0	1.0757126799760308	-0.2363409877748269	0.0	1.02503700933344	-0.20610676198040376	0.0	1.094301756539521	-0.23388082679557531	0.0	1.174971232577781	-0.24343532514835012	0.0
52	1.750326797385621	0.9652979648009956	-0.35496819221805553	0.0	0.9440229567600779	-0.35061934090969377	0.0	0.9593507465356339	-0.48025000769095727	0.0	0.977049271432779	-0.6057723506401068	0.0	1.003534540184922	-0.6592287375231101	0.0	0.9934276180747251	-0.654190266970637	0.0	0.9726018921584084	-0.620941503779375	0.0	0.9854815395019735	-0.3543408662232833	0.0	0.9894124781099118	-0.4816943763072514	0.0	0.9843244068805711	-0.6023797607958752	0.0	1.0055365511457697	-0.6557838821543972	0.0	1.005881305495168	-0.6446018975263601	0.0	0.9754511851075888	-0.6151327430198511	0.0	0.9960313539849553	-0.1860822650872226	0.0	1.0169665488197899	-0.10278256414893462	0.0	1.0201471729010514	-0.15350943935090677	0.0	0.9545784088150538	-0.19259754355552883	0.0	0.9873532218239183	-0.24516100080925815	0.0	1.0715777183143456	-0.26258107047291945	0.0	1.031690549727406	-0.212711354027574	0.0	1.0974942698718664	-0.24749147138071936	0.0	1.1765748402059135	-0.26756731361179825	0.0
53	1.783986928104575	0.9710993297865358	-0.3641339888055457	0.0	0.9486734510818656	-0.3595520615646079	0.0	0.9632278252745229	-0.48911624589899805	0.0	0.9815967349511452	-0.6157822476190599	0.0	1.0088112814701902	-0.668707619906266	0.0	0.9972131081741277	-0.6641810770383324	0.0	0.977580470723556	-0.6317590593612672	0.0	0.9915388797193004	-0.36317458809560266	0.0	0.9961532915644505	-0.49091921201547073	0.0	0.9937011987399021	-0.6128303879829108	0.0	1.012530683794606	-0.6680940716324413	0.0	1.014648593968266	-0.6574911440196803	0.0	0.9864170102283585	-0.6260283366105848	0.0	1.0023162821872573	-0.19545659904846882	0.0	1.023284840710275	-0.11153282691924109	0.0	1.024968011262879	-0.16268133217910055	0.0	0.959223815686047	-0.2031211369295012	0.0	0.9841340203606231	-0.2638118279287195	0.0	1.065540617432522	-0.2912880402720269	0.0	1.038367895064787	-0.2231766811032167	0.0	1.1001561653716438	-0.26519935824877283	0.0	1.1756097724700687	-0.2954958395711976	0.0
54	1.8176470588235294	0.9770779674541195	-0.3775629816958883	0.0	0.9535636052469871	-0.3729799427889385	0.0	0.9669875193383186	-0.5024134397405104	0.0	0.9853946669139335	-0.6304375374128643	0.0	1.013945139310048	-0.682682073036103	0.0	1.000390131384907	-0.6788182099077872	0.0	0.9817957822760245	-0.6472028985156626	0.0	0.9979472747888659	-0.37661200094772507	0.0	1.0032115152871073	-0.5043286417556084	0.0	1.0033929970350628	-0.6277746395139704	0.0	1.0212097659210342	-0.6846997586974406	0.0	1.025226046670689	-0.6750233339785997	0.0	0.9971567125489053	-0.6418087762435627	0.0	1.0088970498071341	-0.20894783130726904	0.0	1.0303343462992882	-0.12450107807423	0.0	1.0303704880443587	-0.1760139660315518	0.0	0.9641951381339605	-0.21762199881766806	0.0	0.9800520297178029	-0.2851999549694676	0.0	1.0578413417132926	-0.3221661504471474	0.0	1.0450856267653097	-0.23758887187018163	0.0	1.1021896156642248	-0.28700178396925285	0.0	1.172552046533386	-0.326985918583009	0.0
55	1.8513071895424835	0.9830088907609754	-0.3956766620880242	0.0	0.9586043671203616	-0.3913727781590527	0.0	0.9707293727984632	-0.5206644870144697	0.0	0.9885102554296399	-0.6501509751269959	0.0	1.0188354483775157	-0.7012695667463634	0.0	1.0031071561003262	-0.6982246274028723	0.0	0.9853661301811713	-0.6674711607915439	0.0	1.0046911138732273	-0.39513638253359373	0.0	1.0106202327385363	-0.5224084859407024	0.0	1.013344467414279	-0.647359281075255	0.0	1.0316358579446219	-0.705289253633633	0.0	1.0374485689143078	-0.696632439511224	0.0	1.0073374560777228	-0.6625164364473978	0.0	1.0157779179443216	-0.22656300035791488	0.0	1.0378934818653038	-0.1416660704384416	0.0	1.0362672505029296	-0.1934589707073403	0.0	0.9695549248883882	-0.2363287880404423	0.0	0.9751264458643994	-0.30928677450355985	0.0	1.0487300891114242	-0.35504050251534175	0.0	1.0520024696923256	-0.25633871676722625	0.0	1.1035290393653496	-0.31282834637412255	0.0	1.1677160227148753	-0.3616873820693149	0.0
56	1.8849673202614379	0.9887278087124303	-0.4188525676234931	0.0	0.963696661423511	-0.4150921851947554	0.0	0.9744741154501323	-0.5442220259385663	0.0	0.9910544503711131	-0.675163906412283	0.0	1.0231268625158727	-0.7243531691022012	0.0	1.005340771454647	-0.7222864940362986	0.0	0.9884558310603907	-0.6926375333294726	0.0	1.011630869051522	-0.4190462894912109	0.0	1.0183163948310938	-0.545544551426664	0.0	1.0234628560228551	-0.6716837147166371	0.0	1.0430506997879896	-0.7294009593018993	0.0	1.0504529738659405	-0.7216188487788268	0.0	1.0169399484546324	-0.6879180012559926	0.0	1.0229082269730143	-0.248364956220754	0.0	1.0456218345552253	-0.16302415270520002	0.0	1.0425283536361767	-0.21496471857205812	0.0	0.9751833437859755	-0.2595484405289388	0.0	0.9695119700504239	-0.3360123184519411	0.0	1.0384114769731705	-0.38975896825977085	0.0	1.0592509814558413	-0.2799600369173324	0.0	1.1041846384968006	-0.34257730047630947	0.0	1.1612706013518475	-0.3992330340109871	0.0
57	1.918627450980392	0.9942616798895779	-0.44722426927033193	0.0	0.9688391513086829	-0.4442652194255531	0.0	0.9782208571649887	-0.5730813956532881	0.0	0.9931840885017345	-0.7052296516146479	0.0	1.0263065202496677	-0.7515701015052899	0.0	1.0068894579431864	-0.7505776960714823	0.0	0.9912598226245003	-0.7224498353973574	0.0	1.0185919389269813	-0.44835399110213026	0.0	1.026135274331833	-0.5738089045942669	0.0	1.033495896249854	-0.700696053050504	0.0	1.054119210857045	-0.756610976014195	0.0	1.0629031019877868	-0.7494624854888838	0.0	1.0260325172807323	-0.717607274016157	0.0	1.0301751277091766	-0.2744045266191156	0.0	1.0531591348429066	-0.18871090789864908	0.0	1.0489572119730788	-0.24055901924862422	0.0	0.9808216260824095	-0.28748420274378317	0.0	0.9635418457860684	-0.3652922285175368	0.0	1.0270419885802757	-0.4262258807394124	0.0	1.0668124635260496	-0.30874922501452917	0.0	1.104173596987611	-0.3760848728480446	0.0	1.1533808155952756	-0.4393412430171479	0.0
58	1.9522875816993464	0.9998178191675007	-0.48055016519948524	0.0	0.9741323980156563	-0.4786804616700067	0.0	0.9820122777715573	-0.6068564051331597	0.0	0.9950795974442891	-0.739543417943934	0.0	1.0278313106722365	-0.7823653739198453	0.0	1.007520950064818	-0.7822730248974755	0.0	0.9939224761416131	-0.756139219289795	0.0	1.0254724288089943	-0.48275403934224886	0.0	1.033811643497935	-0.6069350078106365	0.0	1.0428867866242277	-0.7340908348586849	0.0	1.063515472167402	-0.7864789245005929	0.0	1.0733501991507075	-0.7798136457990673	0.0	1.0344420219937311	-0.751019260744541	0.0	1.0374322858293141	-0.30466015954432507	0.0	1.0602363466259694	-0.2189631252091996	0.0	1.0553173681422248	-0.2703399376836089	0.0	0.9862102903692326	-0.3201318408334262	0.0	0.957761439955704	-0.39705187670651515	0.0	1.0147816246441945	-0.46445316646041196	0.0	1.0745335444802866	-0.3424599488904398	0.0	1.1035121003994393	-0.4130704951535858	0.0	1.1443520337619368	-0.48175400428102694	0.0
59	1.9859477124183005	1.0056016303757485	-0.5182130797285	0.0	0.9796552465973333	-0.5177542939594927	0.0	0.985962389837276	-0.6448065309756394	0.0	0.9969409826610895	-0.7768720100807278	0.0	1.0273888664358932	-0.8158470008643759	0.0	1.0072112673440092	-0.816003281844915	0.0	0.9964735504494486	-0.7923268605263889	0.0	1.0322540354485126	-0.5216547450800301	0.0	1.0410029226737618	-0.6443292057504801	0.0	1.0507876771385967	-0.7711298883774428	0.0	1.070347425019176	-0.8182558176560101	0.0	1.0805469555111342	-0.8121243722736436	0.0	1.0416544293558005	-0.787163144091535	0.0	1.0445262896119325	-0.33898501327070224	0.0	1.0667397969458248	-0.2538837339411839	0.0	1.0614531029788474	-0.3043494549321317	0.0	0.9912209628600317	-0.35714932424606066	0.0	0.9529020825454827	-0.43122493022715946	0.0	1.0018309918017634	-0.5044175234100247	0.0	1.082200859180822	-0.3802837973123435	0.0	1.1023237665610355	-0.4530360112669035	0.0	1.1346616005033947	-0.5260206682328195	0.0
60	2.019607843137255	1.0116391325119611	-0.5592224624841468	0.0	0.9853517865998641	-0.5604617951540009	0.0	0.9902267319865965	-0.6857509122686751	0.0	0.9989588150558556	-0.8156475125004821	0.0	1.0250826551706291	-0.8504600457498278	0.0	1.0062220427356992	-0.84978557948276	0.0	0.9988857605970746	-0.8290806146297875	0.0	1.0388930357274129	-0.564113245523012	0.0	1.0473744522859856	-0.6849482064148658	0.0	1.0563864983486815	-0.8104541221805243	0.0	1.0743109356270237	-0.8506698323368401	0.0	1.0837271055496054	-0.845316092639936	0.0	1.0470615958836007	-0.8243611820331368	0.0	1.0513021704166803	-0.37689743519693475	0.0	1.0726813038817342	-0.2930776161193922	0.0	1.0673603674075716	-0.3422420562472268	0.0	0.9958713118060818	-0.3976903312812347	0.0	0.9497551564893228	-0.46762863304743246	0.0	0.9885320877818787	-0.5457744970650087	0.0	1.0896189422117009	-0.42094199555494516	0.0	1.1009255405833183	-0.4950892641918691	0.0	1.1249422208975903	-0.5712609314010724	0.0
61	2.053267973856209	1.0177664282623362	-0.6020279005056669	0.0	0.9910628545826198	-0.6050868381318206	0.0	0.9949227210080422	-0.7278739331271613	0.0	1.0012188101563078	-0.8539739266556554	0.0	1.0213987244290712	-0.8840052184508713	0.0	1.0049633817472818	-0.8813147535768621	0.0	1.00111014936079	-0.8641971989149733	0.0	1.045248784954087	-0.6085354584242769	0.0	1.0527390547221798	-0.7270752039701897	0.0	1.0593900593191328	-0.8500370465720257	0.0	1.0757480009945573	-0.8819390588191125	0.0	1.0829642178160257	-0.877716990760748	0.0	1.050375266813962	-0.8603624506474156	0.0	1.0576256779771898	-0.4171759767213128	0.0	1.0781218289176369	-0.33521389359115883	0.0	1.0730933692715454	-0.3827771406839145	0.0	1.0002613924271715	-0.44022056771462625	0.0	0.9489689336005445	-0.5057074010303104	0.0	0.9755185675262908	-0.5876065217009465	0.0	1.0966632544023562	-0.4626466929526027	0.0	1.0997914052907387	-0.5377354066866854	0.0	1.1159707028983739	-0.6160177371503649	0.0
